<svg xmlns="http://www.w3.org/2000/svg" version="1.0" width="413.000000pt" height="353.000000pt" viewBox="0 0 413.000000 353.000000" preserveAspectRatio="xMidYMid meet">

<g transform="translate(0.000000,353.000000) scale(0.100000,-0.100000)" fill="#ffffff" stroke="none">
<path d="M1775 3219 c-340 -59 -679 -237 -871 -456 -237 -271 -354 -540 -354 -815 0 -244 52 -476 151 -668 65 -127 128 -208 256 -330 218 -208 466 -338 763 -401 89 -19 139 -22 330 -23 200 -1 237 2 330 22 309 68 546 192 760 398 258 249 389 533 415 894 18 256 -77 562 -245 790 -221 300 -584 518 -982 590 -150 27 -396 27 -553 -1z m335 -165 c287 -54 524 -211 721 -476 156 -211 244 -512 225 -771 -7 -96 -56 -281 -106 -402 -98 -235 -336 -476 -582 -590 -291 -134 -634 -140 -954 -16 -385 149 -681 546 -726 975 -28 277 42 553 202 792 168 249 474 441 780 489 120 19 340 18 440 -1z" fill="#ffffff"/>
</g>
</svg>