<?xml version="1.0" encoding="UTF-8"?>
<svg version="1.1" xmlns="http://www.w3.org/2000/svg" width="225" height="225">
<path d="M0 0 C74.25 0 148.5 0 225 0 C225 74.25 225 148.5 225 225 C150.75 225 76.5 225 0 225 C0 150.75 0 76.5 0 0 Z " fill="#EAE7E1" transform="translate(0,0)"/>
<path d="M0 0 C74.25 0 148.5 0 225 0 C225 74.25 225 148.5 225 225 C150.75 225 76.5 225 0 225 C0 150.75 0 76.5 0 0 Z M66 31 C64.91332031 31.45375 63.82664063 31.9075 62.70703125 32.375 C54.82624552 35.9636631 49.1798979 41.02068611 43 47 C41.61208014 48.19673949 40.21698803 49.38524883 38.8125 50.5625 C31.07171111 57.33766901 21.68954746 66.49465015 20.125 77.125 C20.08375 78.07375 20.0425 79.0225 20 80 C19.34 80 18.68 80 18 80 C17.34482027 82.45616215 16.70082904 84.91445137 16.0625 87.375 C15.78889648 88.39400391 15.78889648 88.39400391 15.50976562 89.43359375 C10.8662741 107.50099713 10.38908103 128.78461518 18 146 C18.3000293 146.68030273 18.60005859 147.36060547 18.90917969 148.06152344 C30.58100854 173.86804411 49.32991983 191.55210783 75.79443359 201.76000977 C90.58924277 206.9509286 106.4120254 206.18543031 121.875 205.8125 C122.56885803 205.79848145 123.26271606 205.78446289 123.9776001 205.77001953 C131.67393134 205.59289823 137.95513793 205.11986749 145 202 C146.31230496 201.6508305 147.63196461 201.32833931 148.95703125 201.03125 C163.94406423 197.46447502 178.49761699 189.17137904 188 177 C188.80308594 176.19820312 189.60617188 175.39640625 190.43359375 174.5703125 C198.23464989 166.75738261 204.02752391 158.68484648 207 148 C207.43220444 146.64757444 207.8673261 145.29607916 208.3046875 143.9453125 C215.06743831 122.35543279 213.21377423 103.22088799 206 82 C205.70351562 81.02160156 205.40703125 80.04320312 205.1015625 79.03515625 C200.92671778 65.99355417 192.43327869 54.73898557 182 46 C181.34 46 180.68 46 180 46 C179.67 45.01 179.34 44.02 179 43 C158.54331615 27.99190659 136.63147295 22.60025935 111.5 22.75 C110.20191406 22.74226563 108.90382813 22.73453125 107.56640625 22.7265625 C92.50387269 22.75665747 79.77577629 25.1131011 66 31 Z " fill="#ECEBE6" transform="translate(0,0)"/>
<path d="M0 0 C1.29808594 -0.00773437 2.59617187 -0.01546875 3.93359375 -0.0234375 C26.05690496 0.02076492 51.79353933 5.37886237 68.5 21.25 C68.5 21.91 68.5 22.57 68.5 23.25 C69.34498047 23.61544922 69.34498047 23.61544922 70.20703125 23.98828125 C86.17883944 32.77685714 93.01212795 52.59783004 97.82666016 68.89672852 C98.0488623 69.67330811 98.27106445 70.4498877 98.5 71.25 C98.70028809 71.94343506 98.90057617 72.63687012 99.10693359 73.35131836 C102.33832455 85.28046328 102.27172715 98.27308727 99.5 110.25 C99.31018555 111.08112305 99.12037109 111.91224609 98.92480469 112.76855469 C96.31452853 123.93364894 93.78663121 134.14171099 86.5 143.25 C85.82453125 144.15105469 85.1490625 145.05210937 84.453125 145.98046875 C81.09966789 150.34878788 77.86012227 153.86591817 73.5 157.25 C72.79875 157.9925 72.0975 158.735 71.375 159.5 C59.86969349 170.50507579 45.23160248 177.51740004 29.6875 180.77734375 C27.46934691 181.16189942 27.46934691 181.16189942 25.5 182.25 C23.09837289 182.43140645 20.72184688 182.55672098 18.31640625 182.63671875 C17.2322644 182.67670486 17.2322644 182.67670486 16.1262207 182.71749878 C-15.07902459 183.80616059 -43.52708478 182.10762132 -68.3125 160.4375 C-83.57393893 145.73549798 -98.16320633 123.68760354 -98.765625 101.74609375 C-98.77408598 99.72657351 -98.76836884 97.70695443 -98.75 95.6875 C-98.74395752 94.62700439 -98.73791504 93.56650879 -98.73168945 92.47387695 C-98.57925128 80.33333162 -97.12729666 68.88153129 -93.5 57.25 C-92.84 57.25 -92.18 57.25 -91.5 57.25 C-91.479375 56.321875 -91.45875 55.39375 -91.4375 54.4375 C-89.54861498 41.6034319 -76.11587158 30.356521 -66.87109375 22.3359375 C-64.54633558 20.34686009 -64.54633558 20.34686009 -62.72265625 18.4140625 C-56.11274212 11.7891599 -47.08433971 8.60089635 -38.5 5.25 C-37.81405762 4.97607422 -37.12811523 4.70214844 -36.42138672 4.41992188 C-24.73699792 0.11017274 -12.30996202 -0.07334635 0 0 Z M-20.16015625 2.390625 C-28.20286757 3.05574585 -34.97029427 5.32884725 -42.375 8.4375 C-43.24286133 8.799646 -44.11072266 9.16179199 -45.00488281 9.53491211 C-53.31126656 13.22601963 -59.9045918 18.62883568 -66.5625 24.75 C-69.56455602 27.50537545 -72.60413115 30.16139935 -75.75 32.75 C-88.66736735 44.1659499 -95.87622513 65.57905631 -97.25 82.25 C-97.35130542 84.58262215 -97.4347341 86.91609142 -97.5 89.25 C-97.56316406 90.38179688 -97.62632813 91.51359375 -97.69140625 92.6796875 C-98.4381729 113.92640328 -89.19955566 135.48126168 -75.078125 151.1484375 C-60.65672572 166.45192606 -41.25890625 179.38612405 -19.63720703 180.38183594 C2.91973529 180.94015903 21.5086793 179.42614886 40.5 166.25 C41.45648438 165.60933594 42.41296875 164.96867188 43.3984375 164.30859375 C50.00453944 159.72873316 56.51617189 154.6068133 61.5 148.25 C61.5 146.93 61.5 145.61 61.5 144.25 C62.16 144.25 62.82 144.25 63.5 144.25 C68.50705145 138.26935521 71.45752785 131.38262754 74.5 124.25 C74.89574219 123.32832031 75.29148438 122.40664062 75.69921875 121.45703125 C79.41136492 112.11456673 81.29419915 102.15784927 79.84765625 92.1484375 C79.55577031 89.71496143 79.4000128 87.35991384 79.30859375 84.9140625 C79.27741455 84.12741211 79.24623535 83.34076172 79.21411133 82.53027344 C79.15625944 80.96874788 79.10739235 79.40685395 79.0690918 77.84472656 C78.87470678 73.1651252 78.03725042 69.40075771 76.24902344 65.07226562 C75.24254159 62.62364095 74.55512424 60.10191263 73.8125 57.5625 C71.46914966 50.40529043 67.58949327 44.506001 63.5 38.25 C62.96503906 37.29996094 62.43007812 36.34992187 61.87890625 35.37109375 C61.42386719 34.67113281 60.96882812 33.97117187 60.5 33.25 C59.84 33.25 59.18 33.25 58.5 33.25 C58.5 32.59 58.5 31.93 58.5 31.25 C56.58393353 29.54053147 56.58393353 29.54053147 54.1875 27.8125 C49.73694568 24.49429284 49.73694568 24.49429284 47.98828125 22.69140625 C46.15819874 20.91896413 44.23593494 19.83985798 42 18.625 C40.83984375 17.98691406 40.83984375 17.98691406 39.65625 17.3359375 C37.41100843 16.14017725 37.41100843 16.14017725 34.5 15.25 C34.231875 14.63253906 33.96375 14.01507813 33.6875 13.37890625 C30.98659168 8.53681732 23.61506063 6.85839847 18.5 5.25 C5.66675045 1.89648539 -7.02131361 1.88582422 -20.16015625 2.390625 Z " fill="#5D5D56" transform="translate(111.5,22.75)"/>
<path d="M0 0 C11.47261328 4.96183961 19.56921573 18.40365635 24.03710938 29.59863281 C26.26007384 35.65911331 28.22439915 41.79441023 30 48 C30.20028809 48.69343506 30.40057617 49.38687012 30.60693359 50.10131836 C33.83832455 62.03046328 33.77172715 75.02308727 31 87 C30.81018555 87.83112305 30.62037109 88.66224609 30.42480469 89.51855469 C27.81452853 100.68364894 25.28663121 110.89171099 18 120 C16.98679688 121.35158203 16.98679688 121.35158203 15.953125 122.73046875 C12.59966789 127.09878788 9.36012227 130.61591817 5 134 C4.29875 134.7425 3.5975 135.485 2.875 136.25 C-8.63030651 147.25507579 -23.26839752 154.26740004 -38.8125 157.52734375 C-41.03065309 157.91189942 -41.03065309 157.91189942 -43 159 C-45.40162711 159.18140645 -47.77815312 159.30672098 -50.18359375 159.38671875 C-51.2677356 159.42670486 -51.2677356 159.42670486 -52.3737793 159.46749878 C-83.57902459 160.55616059 -112.02708478 158.85762132 -136.8125 137.1875 C-150.9867965 123.60117432 -150.9867965 123.60117432 -152 117 C-149.4521037 119.44598045 -147.11037822 122.01020468 -144.8125 124.6875 C-143.54675777 126.12948482 -142.27566339 127.56678455 -141 129 C-140.35289062 129.72703125 -139.70578125 130.4540625 -139.0390625 131.203125 C-126.29321438 144.75447282 -106.89430768 155.26804314 -88.13720703 156.13183594 C-65.55225298 156.69085237 -46.96433751 154.99599696 -28 142 C-19.14594595 136 -19.14594595 136 -14 136 C-14.99 137.65 -15.98 139.3 -17 141 C-15.02463255 140.65213292 -15.02463255 140.65213292 -13 140 C-12.67 139.34 -12.34 138.68 -12 138 C-10.2578125 137.18359375 -10.2578125 137.18359375 -8.125 136.4375 C-7.42632812 136.18871094 -6.72765625 135.93992188 -6.0078125 135.68359375 C-4.34070587 135.11599908 -2.67070865 134.55690288 -1 134 C-1.33 133.01 -1.66 132.02 -2 131 C-1.01 131 -0.02 131 1 131 C1.3403125 130.071875 1.3403125 130.071875 1.6875 129.125 C3.38416443 126.3780195 5.05251711 126.13364727 8 125 C8.33 124.01 8.66 123.02 9 122 C9.99 122 10.98 122 12 122 C12 121.34 12 120.68 12 120 C12.66 120 13.32 120 14 120 C14.33 119.01 14.66 118.02 15 117 C15.99 117 16.98 117 18 117 C17.938125 115.9275 17.87625 114.855 17.8125 113.75 C18.02025925 109.59481504 18.62791857 109.13114749 21 106 C21.55899458 103.32407224 21.77221879 100.73337453 22 98 C22.66 98 23.32 98 24 98 C23.98259766 96.77023438 23.98259766 96.77023438 23.96484375 95.515625 C23.95582031 94.43796875 23.94679687 93.3603125 23.9375 92.25 C23.92589844 91.18265625 23.91429687 90.1153125 23.90234375 89.015625 C24 86 24 86 24.49560547 84.13549805 C25.53835816 79.72070723 25.19059025 75.07667379 25.1875 70.5625 C25.18741943 69.48460205 25.18733887 68.4067041 25.18725586 67.29614258 C25.12553817 58.67060873 24.74994834 50.24984501 22 42 C21.01 42.495 21.01 42.495 20 43 C20 40.03 20 37.06 20 34 C19.01 34 18.02 34 17 34 C17 31.03 17 28.06 17 25 C14.525 25.99 14.525 25.99 12 27 C12 27.99 12 28.98 12 30 C11.01 29.67 10.02 29.34 9 29 C9.46792969 28.22076172 9.46792969 28.22076172 9.9453125 27.42578125 C12.46652637 23.12328991 12.46652637 23.12328991 12.5625 18.3125 C10.65631744 15.49134981 8.464125 13.35211932 6 11 C4.41601641 9.20585643 2.87172258 7.38297331 1.33203125 5.55078125 C0.27444643 4.31951682 -0.85228537 3.14771463 -2 2 C-1.34 1.34 -0.68 0.68 0 0 Z " fill="#393933" transform="translate(180,46)"/>
<path d="M0 0 C1.29808594 -0.00773437 2.59617187 -0.01546875 3.93359375 -0.0234375 C22.13529276 0.01292953 37.45934395 3.41831176 53.5625 11.6875 C54.47974854 12.15406006 55.39699707 12.62062012 56.34204102 13.10131836 C61.03229738 15.58813363 64.55930725 17.65985353 67.5 22.25 C66.96375 22.765625 66.4275 23.28125 65.875 23.8125 C64.08703117 26.35114009 64.08703117 26.35114009 65.3125 30 C65.704375 31.0725 66.09625 32.145 66.5 33.25 C63.5 33.25 63.5 33.25 60.5 32.25 C60.5 29.94 60.5 27.63 60.5 25.25 C59.778125 25.518125 59.05625 25.78625 58.3125 26.0625 C55.5 26.25 55.5 26.25 52.6875 23.8125 C51.965625 22.966875 51.24375 22.12125 50.5 21.25 C50.5 21.91 50.5 22.57 50.5 23.25 C43.96143302 21.52932448 37.26273961 18.08343964 32.515625 13.21484375 C22.97544565 3.91501776 4.49631562 2.98982237 -8.1875 2.9375 C-10.9622449 2.98696408 -13.72872242 3.10631919 -16.5 3.25 C-17.70785156 3.29640625 -18.91570312 3.3428125 -20.16015625 3.390625 C-28.20286757 4.05574585 -34.97029427 6.32884725 -42.375 9.4375 C-43.24286133 9.799646 -44.11072266 10.16179199 -45.00488281 10.53491211 C-53.34079059 14.23913922 -59.94685468 19.66634253 -66.625 25.8125 C-69.43655749 28.39338791 -72.26373509 30.87545896 -75.25 33.25 C-87.94828247 44.22748718 -94.92407876 66.15976655 -96.25 82.25 C-96.35130542 84.58262215 -96.4347341 86.91609142 -96.5 89.25 C-96.56316406 90.38179688 -96.62632813 91.51359375 -96.69140625 92.6796875 C-97.21708846 107.63619417 -92.75586834 123.3273811 -84.75390625 136.01953125 C-84.34011719 136.75558594 -83.92632812 137.49164063 -83.5 138.25 C-83.995 139.24 -83.995 139.24 -84.5 140.25 C-88.16935096 135.02395469 -90.75621178 129.62683661 -93.1875 123.75 C-93.48470947 123.03851807 -93.78191895 122.32703613 -94.08813477 121.59399414 C-97.65790076 112.78344325 -98.83616153 105.16002413 -98.75 95.6875 C-98.74395752 94.62700439 -98.73791504 93.56650879 -98.73168945 92.47387695 C-98.57925128 80.33333162 -97.12729666 68.88153129 -93.5 57.25 C-92.84 57.25 -92.18 57.25 -91.5 57.25 C-91.479375 56.321875 -91.45875 55.39375 -91.4375 54.4375 C-89.54861498 41.6034319 -76.11587158 30.356521 -66.87109375 22.3359375 C-64.54633558 20.34686009 -64.54633558 20.34686009 -62.72265625 18.4140625 C-56.11274212 11.7891599 -47.08433971 8.60089635 -38.5 5.25 C-37.81405762 4.97607422 -37.12811523 4.70214844 -36.42138672 4.41992188 C-24.73699792 0.11017274 -12.30996202 -0.07334635 0 0 Z " fill="#44433F" transform="translate(111.5,22.75)"/>
<path d="M0 0 C0.99 0.66 1.98 1.32 3 2 C2.75 4.875 2.75 4.875 2 8 C1.34 8.2578125 0.68 8.515625 0 8.78125 C-0.66 9.1834375 -1.32 9.585625 -2 10 C-2.70672206 13.10930941 -2.70672206 13.10930941 -2.75 16.625 C-2.80671875 17.81351563 -2.8634375 19.00203125 -2.921875 20.2265625 C-2.94765625 21.14179688 -2.9734375 22.05703125 -3 23 C-3.66 23 -4.32 23 -5 23 C-5 23.99 -5 24.98 -5 26 C-4.01 26 -3.02 26 -2 26 C-2 25.01 -2 24.02 -2 23 C-1.34 23 -0.68 23 0 23 C0.268125 22.278125 0.53625 21.55625 0.8125 20.8125 C1.99901362 18.00233617 3.27485639 15.51583443 5 13 C5.66 13 6.32 13 7 13 C7.33 12.01 7.66 11.02 8 10 C9.41687119 14.25061356 8.19320039 16.71851625 7 21 C6.34 21 5.68 21 5 21 C5 21.66 5 22.32 5 23 C4.01 23 3.02 23 2 23 C1.95875 23.598125 1.9175 24.19625 1.875 24.8125 C0.55777618 28.10555955 -1.86701455 28.55882669 -5 30 C-6.85801239 31.43691955 -6.85801239 31.43691955 -8 33 C-8 33.66 -8 34.32 -8 35 C-14.5 39 -14.5 39 -19 39 C-19.33 39.99 -19.66 40.98 -20 42 C-21.32 42 -22.64 42 -24 42 C-23.67 40.68 -23.34 39.36 -23 38 C-23.99 38.495 -23.99 38.495 -25 39 C-25.99 38.67 -26.98 38.34 -28 38 C-27.48050781 37.55269531 -26.96101562 37.10539062 -26.42578125 36.64453125 C-18.25665747 30.56638889 -18.25665747 30.56638889 -14 22 C-13.34 22 -12.68 22 -12 22 C-11.731875 21.278125 -11.46375 20.55625 -11.1875 19.8125 C-8.93245885 14.47161307 -5.5717394 9.84835644 -2.3046875 5.0859375 C-0.85018769 2.94217592 -0.85018769 2.94217592 0 0 Z " fill="#575750" transform="translate(187,145)"/>
<path d="M0 0 C11.50875928 4.97747255 19.51706621 18.40650271 24.05322266 29.59863281 C32.31573929 51.70782539 32.31573929 51.70782539 30 62 C29.67 62 29.34 62 29 62 C28.67 59.36 28.34 56.72 28 54 C28.01160156 55.15757813 28.02320313 56.31515625 28.03515625 57.5078125 C28.04454077 59.04687338 28.05364026 60.58593601 28.0625 62.125 C28.07087891 62.88554688 28.07925781 63.64609375 28.08789062 64.4296875 C28.10646509 68.7389644 27.86117265 72.75516474 27 77 C26.67 77 26.34 77 26 77 C25.9498877 76.1529248 25.89977539 75.30584961 25.84814453 74.43310547 C25.65702296 71.26811499 25.45861341 68.1036866 25.25537109 64.93945312 C25.16914674 63.57407273 25.08576641 62.20850945 25.00537109 60.84277344 C24.8888083 58.87127927 24.76091308 56.90046561 24.6328125 54.9296875 C24.55949707 53.74616699 24.48618164 52.56264648 24.41064453 51.34326172 C23.99979851 47.99835956 23.17817911 45.14879898 22 42 C21.01 42.495 21.01 42.495 20 43 C20 40.03 20 37.06 20 34 C19.01 34 18.02 34 17 34 C17 31.03 17 28.06 17 25 C15.35 25.66 13.7 26.32 12 27 C12 27.99 12 28.98 12 30 C11.01 29.67 10.02 29.34 9 29 C9.31195313 28.48050781 9.62390625 27.96101563 9.9453125 27.42578125 C12.46652637 23.12328991 12.46652637 23.12328991 12.5625 18.3125 C10.65631744 15.49134981 8.464125 13.35211932 6 11 C4.41601641 9.20585643 2.87172258 7.38297331 1.33203125 5.55078125 C0.27444643 4.31951682 -0.85228537 3.14771463 -2 2 C-1.34 1.34 -0.68 0.68 0 0 Z " fill="#44443D" transform="translate(180,46)"/>
<path d="M0 0 C0.33 1.32 0.66 2.64 1 4 C2.65 4 4.3 4 6 4 C6.38133299 5.9914056 6.71325582 7.99279077 7 10 C6.67 10.33 6.34 10.66 6 11 C6.061875 12.299375 6.12375 13.59875 6.1875 14.9375 C6.27708447 21.94748496 3.61288313 28.7091078 -1 34 C-1.66 34 -2.32 34 -3 34 C-3.37125 35.051875 -3.37125 35.051875 -3.75 36.125 C-5.16039511 39.36890874 -7.02649053 42.07156659 -9 45 C-9.33 45.99 -9.66 46.98 -10 48 C-10.99 47.67 -11.98 47.34 -13 47 C-11.60136691 31.76116188 -11.60136691 31.76116188 -6 27 C-5.34 27 -4.68 27 -4 27 C-3.34864008 22.60332053 -2.97200669 18.50626015 -3.125 14.0625 C-3.20459095 8.92888381 -1.91673827 4.72339075 0 0 Z " fill="#76736D" transform="translate(195,124)"/>
<path d="M0 0 C-0.64324219 0.30550781 -1.28648438 0.61101563 -1.94921875 0.92578125 C-9.7537349 4.87813964 -15.97889889 9.84767181 -22.45410156 15.63037109 C-23.89535188 16.90728428 -25.36469966 18.15228773 -26.8359375 19.39453125 C-41.63483849 32.0824779 -50.1616296 52.7249105 -51.75 72 C-51.85130542 74.33262215 -51.9347341 76.66609142 -52 79 C-52.06316406 80.13179688 -52.12632813 81.26359375 -52.19140625 82.4296875 C-52.71708846 97.38619417 -48.25586834 113.0773811 -40.25390625 125.76953125 C-39.84011719 126.50558594 -39.42632812 127.24164063 -39 128 C-39.495 128.99 -39.495 128.99 -40 130 C-43.66935096 124.77395469 -46.25621178 119.37683661 -48.6875 113.5 C-48.98470947 112.78851807 -49.28191895 112.07703613 -49.58813477 111.34399414 C-53.15790076 102.53344325 -54.33616153 94.91002413 -54.25 85.4375 C-54.24395752 84.37700439 -54.23791504 83.31650879 -54.23168945 82.22387695 C-54.07925128 70.08333162 -52.62729666 58.63153129 -49 47 C-48.34 47 -47.68 47 -47 47 C-46.979375 46.071875 -46.95875 45.14375 -46.9375 44.1875 C-44.89572816 30.3146393 -29.89561993 18.64260312 -20 10 C-19.3090625 9.34773438 -18.618125 8.69546875 -17.90625 8.0234375 C-13.17612318 3.61240654 -6.74076097 -2.24692032 0 0 Z " fill="#343331" transform="translate(67,33)"/>
<path d="M0 0 C2.25808338 1.04753333 4.50531411 2.11192134 6.75 3.1875 C7.38421875 3.47947266 8.0184375 3.77144531 8.671875 4.07226562 C12.83347641 6.08804131 15.32735983 8.09227611 18 12 C17.46375 12.515625 16.9275 13.03125 16.375 13.5625 C14.58703117 16.10114009 14.58703117 16.10114009 15.8125 19.75 C16.204375 20.8225 16.59625 21.895 17 23 C14 23 14 23 11 22 C11 19.69 11 17.38 11 15 C10.030625 14.731875 9.06125 14.46375 8.0625 14.1875 C6.5465625 13.5996875 6.5465625 13.5996875 5 13 C4.67 12.01 4.34 11.02 4 10 C3.67 9.34 3.34 8.68 3 8 C2.67 8.66 2.34 9.32 2 10 C1.34 10 0.68 10 0 10 C-0.33 9.34 -0.66 8.68 -1 8 C-1.94875 7.690625 -2.8975 7.38125 -3.875 7.0625 C-6.84222079 6.05364493 -8.15406415 5.4612478 -10 3 C-10 2.34 -10 1.68 -10 1 C-9.38511719 1.144375 -8.77023438 1.28875 -8.13671875 1.4375 C-6.92435547 1.7159375 -6.92435547 1.7159375 -5.6875 2 C-4.88699219 2.185625 -4.08648437 2.37125 -3.26171875 2.5625 C-0.89304062 3.09495823 -0.89304062 3.09495823 2 3 C1.34 2.67 0.68 2.34 0 2 C0 1.34 0 0.68 0 0 Z " fill="#3E3D39" transform="translate(161,33)"/>
<path d="M0 0 C0.66 0 1.32 0 2 0 C2.66 1.65 3.32 3.3 4 5 C4.99 5 5.98 5 7 5 C9.0625 5.1875 9.0625 5.1875 11 6 C12.5 8.0625 12.5 8.0625 13 11 C11.95693718 13.84471677 10.55750399 16.40630534 9 19 C8.34 19 7.68 19 7 19 C7 18.34 7 17.68 7 17 C6.34 17 5.68 17 5 17 C5.495 18.8253125 5.495 18.8253125 6 20.6875 C6.80322213 23.87210604 7.20641973 26.6972843 7 30 C6.34 30 5.68 30 5 30 C4.32968281 28.0429132 3.66385317 26.08428887 3 24.125 C2.62875 23.03445312 2.2575 21.94390625 1.875 20.8203125 C1 18 1 18 1 16 C1.66 16 2.32 16 3 16 C1.45730076 11.27934033 -0.07794619 6.58335908 -2 2 C-1.34 1.34 -0.68 0.68 0 0 Z " fill="#55554C" transform="translate(181,56)"/>
<path d="M0 0 C0.99 0.66 1.98 1.32 3 2 C2.75 4.875 2.75 4.875 2 8 C1.34773438 8.28359375 0.69546875 8.5671875 0.0234375 8.859375 C-2.25992237 9.84075833 -2.25992237 9.84075833 -2.7578125 12.4609375 C-2.87898437 13.42257813 -3.00015625 14.38421875 -3.125 15.375 C-3.60523058 19.01103154 -4.16675123 21.80317777 -6 25 C-6.66 25 -7.32 25 -8 25 C-8 25.66 -8 26.32 -8 27 C-8.66 27 -9.32 27 -10 27 C-10.33 27.99 -10.66 28.98 -11 30 C-14 32 -14 32 -17 32 C-16.01 28.7 -15.02 25.4 -14 22 C-13.34 22 -12.68 22 -12 22 C-11.5978125 20.9171875 -11.5978125 20.9171875 -11.1875 19.8125 C-8.93245885 14.47161307 -5.5717394 9.84835644 -2.3046875 5.0859375 C-0.85018769 2.94217592 -0.85018769 2.94217592 0 0 Z " fill="#40403A" transform="translate(187,145)"/>
<path d="M0 0 C0.66 0.66 1.32 1.32 2 2 C1.01 2.495 1.01 2.495 0 3 C-0.33 3.99 -0.66 4.98 -1 6 C0.97536745 5.65213292 0.97536745 5.65213292 3 5 C3.33 4.34 3.66 3.68 4 3 C4.99 3 5.98 3 7 3 C7 3.66 7 4.32 7 5 C1.95859836 7.81532819 -2.22621075 9.5188509 -8 10 C-8 9.34 -8 8.68 -8 8 C-10.78750144 9.39375072 -10.89266287 11.16244861 -12 14 C-12.66 14.66 -13.32 15.32 -14 16 C-13.01 16.99 -12.02 17.98 -11 19 C-12.98 19.33 -14.96 19.66 -17 20 C-16.67 19.34 -16.34 18.68 -16 18 C-19.13225836 16.99118706 -21.096708 17.04406727 -24.25 17.9375 C-25.4875 18.288125 -26.725 18.63875 -28 19 C-28 18.01 -28 17.02 -28 16 C-27.27554688 15.61328125 -26.55109375 15.2265625 -25.8046875 14.828125 C-20.70168168 12.07930587 -15.76811536 9.29227013 -11 6 C-7.74554503 3.93619928 -4.58752883 2.3951501 -1 1 C-0.67 0.67 -0.34 0.34 0 0 Z " fill="#4E4E46" transform="translate(164,181)"/>
<path d="M0 0 C2.5478963 2.44598045 4.88962178 5.01020468 7.1875 7.6875 C8.45324223 9.12948482 9.72433661 10.56678455 11 12 C11.97066406 13.09054688 11.97066406 13.09054688 12.9609375 14.203125 C30.1533585 32.48205587 52.77064536 38.98527809 77.12646484 39.7980957 C79.75086989 39.87359571 82.37515842 39.94191266 85 40 C85 40.33 85 40.66 85 41 C58.09419992 42.80155284 35.77265819 37.78050751 14.75 19.6875 C1.02212073 6.74599679 1.02212073 6.74599679 0 0 Z " fill="#4F4D48" transform="translate(28,163)"/>
<path d="M0 0 C1.5625 1.625 1.5625 1.625 3 4 C2.6875 7.25 2.6875 7.25 2 10 C1.34 10 0.68 10 0 10 C-0.2475 10.70125 -0.495 11.4025 -0.75 12.125 C-2.16039511 15.36890874 -4.02649053 18.07156659 -6 21 C-6.33 21.99 -6.66 22.98 -7 24 C-7.99 23.67 -8.98 23.34 -10 23 C-8.60136691 7.76116188 -8.60136691 7.76116188 -3 3 C-2.34 3 -1.68 3 -1 3 C-0.67 2.01 -0.34 1.02 0 0 Z " fill="#808078" transform="translate(192,148)"/>
<path d="M0 0 C-3.52716779 6.42448419 -7.34342232 8.50751932 -14.0625 11.25 C-17.17579503 12.04488384 -18.95013696 11.89701854 -22 11 C-22 10.01 -22 9.02 -22 8 C-21.34 8 -20.68 8 -20 8 C-20.33 7.01 -20.66 6.02 -21 5 C-20.34 4.34 -19.68 3.68 -19 3 C-18.67 2.34 -18.34 1.68 -18 1 C-15 2 -15 2 -13 3 C-10.4014839 2.07291364 -7.92770047 0.93964793 -5.41015625 -0.1875 C-3 -1 -3 -1 0 0 Z " fill="#35352D" transform="translate(172,187)"/>
<path d="M0 0 C0.99 0 1.98 0 3 0 C3.33 2.64 3.66 5.28 4 8 C4.99 8 5.98 8 7 8 C7.33 7.34 7.66 6.68 8 6 C10.00925164 12.38232875 9.99989549 17.40609458 9 24 C8.67 24 8.34 24 8 24 C7.67 21.36 7.34 18.72 7 16 C7.01160156 17.15757813 7.02320313 18.31515625 7.03515625 19.5078125 C7.04454077 21.04687338 7.05364026 22.58593601 7.0625 24.125 C7.07087891 24.88554688 7.07925781 25.64609375 7.08789062 26.4296875 C7.10646509 30.7389644 6.86117265 34.75516474 6 39 C5.67 39 5.34 39 5 39 C4.92483154 37.72938721 4.92483154 37.72938721 4.84814453 36.43310547 C4.65702296 33.26811499 4.45861341 30.1036866 4.25537109 26.93945312 C4.16914674 25.57407273 4.08576641 24.20850945 4.00537109 22.84277344 C3.8888083 20.87127927 3.76091308 18.90046561 3.6328125 16.9296875 C3.55949707 15.74616699 3.48618164 14.56264648 3.41064453 13.34326172 C2.99979851 9.99835956 2.17817911 7.14879898 1 4 C0.01 4.495 0.01 4.495 -1 5 C-0.67 3.35 -0.34 1.7 0 0 Z " fill="#484942" transform="translate(201,84)"/>
<path d="M0 0 C1.16306443 3.54950034 0.92365049 6.55823948 0.5625 10.25 C0.46066406 11.32765625 0.35882813 12.4053125 0.25390625 13.515625 C0.17011719 14.33546875 0.08632812 15.1553125 0 16 C-0.66 16 -1.32 16 -2 16 C-1.95875 17.216875 -1.9175 18.43375 -1.875 19.6875 C-1.86245492 23.21894127 -2.40001783 25.80003566 -4 29 C-4.33 29 -4.66 29 -5 29 C-5.33 30.98 -5.66 32.96 -6 35 C-7.98 35.495 -7.98 35.495 -10 36 C-8.98262809 29.7083579 -7.43756146 24.13768133 -4.8046875 18.32421875 C-3.85670045 15.99957859 -3.85670045 15.99957859 -4.0078125 13.39453125 C-4 11 -4 11 -2 8 C-1.33841957 5.95415921 -1.33841957 5.95415921 -0.875 3.8125 C-0.441875 1.9253125 -0.441875 1.9253125 0 0 Z " fill="#585850" transform="translate(204,128)"/>
<path d="M0 0 C0.75390625 1.63671875 0.75390625 1.63671875 1 4 C-0.66015625 6.76953125 -0.66015625 6.76953125 -3.0625 9.8125 C-3.47717529 10.34077393 -3.89185059 10.86904785 -4.3190918 11.41333008 C-5.5339468 12.95186373 -6.7666679 14.47623808 -8 16 C-8.59296875 16.76054687 -9.1859375 17.52109375 -9.796875 18.3046875 C-12.36051958 21.48942123 -13.95781712 23.28464567 -18 24 C-18 21 -18 21 -17 18 C-15.66666667 17 -14.33333333 16 -13 15 C-12.67 14.01 -12.34 13.02 -12 12 C-11.01 12 -10.02 12 -9 12 C-9 11.34 -9 10.68 -9 10 C-8.34 10 -7.68 10 -7 10 C-6.67 9.01 -6.34 8.02 -6 7 C-5.01 7 -4.02 7 -3 7 C-2.67 5.35 -2.34 3.7 -2 2 C-1.34 2 -0.68 2 0 2 C0 1.34 0 0.68 0 0 Z " fill="#363630" transform="translate(201,156)"/>
<path d="M0 0 C2.32421875 0.5390625 2.32421875 0.5390625 5 2 C6.20359525 4.53795146 7.04365543 6.71303324 7.8125 9.375 C8.13637695 10.38433594 8.13637695 10.38433594 8.46679688 11.4140625 C9.51270836 14.78754208 10 17.43685624 10 21 C9.01 21 8.02 21 7 21 C6.34 19.02 5.68 17.04 5 15 C4.01 15 3.02 15 2 15 C2 13.02 2 11.04 2 9 C1.34 9 0.68 9 0 9 C0 6.03 0 3.06 0 0 Z " fill="#41423C" transform="translate(198,71)"/>
<path d="M0 0 C3.37498158 -0.02922646 6.74993021 -0.04687468 10.125 -0.0625 C11.55199219 -0.07506836 11.55199219 -0.07506836 13.0078125 -0.08789062 C17.79018487 -0.10449608 22.29771569 -0.00537055 27 1 C26.34 1.66 25.68 2.32 25 3 C24.01 3 23.02 3 22 3 C22 3.99 22 4.98 22 6 C14.33668281 4.99322726 7.25152293 3.7039577 0 1 C0 0.67 0 0.34 0 0 Z " fill="#2D2C28" transform="translate(113,24)"/>
<path d="M0 0 C0.33 0.99 0.66 1.98 1 3 C1.66 3 2.32 3 3 3 C1.68 8.61 0.36 14.22 -1 20 C-1.66 20 -2.32 20 -3 20 C-4.74472993 16.51054014 -4.45335313 12.81523157 -4 9 C-2.91635322 5.85789755 -1.5542657 2.93506424 0 0 Z " fill="#3B3B35" transform="translate(209,125)"/>
<path d="M0 0 C2.08313658 6.24940973 2.13290616 12.48759825 2 19 C2.66 19 3.32 19 4 19 C4 22.3 4 25.6 4 29 C3.34 29 2.68 29 2 29 C2 28.34 2 27.68 2 27 C1.34 27 0.68 27 0 27 C-0.09087891 25.17275391 -0.09087891 25.17275391 -0.18359375 23.30859375 C-0.26806403 21.68488723 -0.35270872 20.06118978 -0.4375 18.4375 C-0.49647461 17.23770508 -0.49647461 17.23770508 -0.55664062 16.01367188 C-0.80748156 11.28628494 -1.25321814 6.67523099 -2 2 C-1.34 2 -0.68 2 0 2 C0 1.34 0 0.68 0 0 Z " fill="#4C4B45" transform="translate(190,85)"/>
<path d="M0 0 C3.7758544 0.52442422 6.22372155 1.32654667 9 4 C9 4.99 9 5.98 9 7 C9.63514826 9.34210921 10.2986716 11.67684969 11 14 C8 14 8 14 5 13 C5 10.69 5 8.38 5 6 C3.02 5.34 1.04 4.68 -1 4 C-0.67 2.68 -0.34 1.36 0 0 Z " fill="#4B4A46" transform="translate(167,42)"/>
<path d="M0 0 C0.66 0 1.32 0 2 0 C3.125 5.75 3.125 5.75 2 8 C4.97 5.525 4.97 5.525 8 3 C5.29384966 13.74259681 5.29384966 13.74259681 1 17 C0.87625 16.030625 0.7525 15.06125 0.625 14.0625 C0.41875 13.051875 0.2125 12.04125 0 11 C-0.66 10.67 -1.32 10.34 -2 10 C-1.34 6.7 -0.68 3.4 0 0 Z " fill="#717068" transform="translate(193,139)"/>
<path d="M0 0 C0 0.66 0 1.32 0 2 C-0.66 2.66 -1.32 3.32 -2 4 C-1.01 4.99 -0.02 5.98 1 7 C-0.98 7.33 -2.96 7.66 -5 8 C-4.67 7.34 -4.34 6.68 -4 6 C-7.13225836 4.99118706 -9.096708 5.04406727 -12.25 5.9375 C-13.4875 6.288125 -14.725 6.63875 -16 7 C-16 6.01 -16 5.02 -16 4 C-10.53812142 1.00897126 -6.20289724 0 0 0 Z " fill="#3E3E36" transform="translate(152,193)"/>
<path d="M0 0 C0.66 0 1.32 0 2 0 C3.51708428 12.66970387 3.51708428 12.66970387 1 18 C0.690625 17.360625 0.38125 16.72125 0.0625 16.0625 C-0.8345163 14.06389179 -0.8345163 14.06389179 -2 13 C-2.99 13.99 -3.98 14.98 -5 16 C-3.71291613 10.45563871 -2.08135307 5.29798964 0 0 Z " fill="#575651" transform="translate(190,133)"/>
<path d="M0 0 C0.99 0.66 1.98 1.32 3 2 C2.75 4.875 2.75 4.875 2 8 C1.34 8.28875 0.68 8.5775 0 8.875 C-0.99 9.431875 -0.99 9.431875 -2 10 C-2.69009775 12.69360735 -2.81968745 15.20515553 -3 18 C-4.32 16.35 -5.64 14.7 -7 13 C-6.66226563 12.39671875 -6.32453125 11.7934375 -5.9765625 11.171875 C-5.53054687 10.37265625 -5.08453125 9.5734375 -4.625 8.75 C-4.18414062 7.96109375 -3.74328125 7.1721875 -3.2890625 6.359375 C-2.14252177 4.26085803 -1.05350448 2.1463923 0 0 Z " fill="#4B4A45" transform="translate(187,145)"/>
<path d="M0 0 C5.11365014 1.0681847 10.07227969 2.23107476 15 4 C15 4.66 15 5.32 15 6 C15.66 6.33 16.32 6.66 17 7 C16.01 7.66 15.02 8.32 14 9 C13.67 8.34 13.34 7.68 13 7 C12.67 7.66 12.34 8.32 12 9 C11.34 9 10.68 9 10 9 C9.67 8.34 9.34 7.68 9 7 C8.05125 6.690625 7.1025 6.38125 6.125 6.0625 C3.15777921 5.05364493 1.84593585 4.4612478 0 2 C0 1.34 0 0.68 0 0 Z " fill="#4A4945" transform="translate(151,34)"/>
<path d="M0 0 C0.33 1.32 0.66 2.64 1 4 C2.65 4 4.3 4 6 4 C6 5.98 6 7.96 6 10 C5.34 10 4.68 10 4 10 C3.67 9.34 3.34 8.68 3 8 C2.34 9.98 1.68 11.96 1 14 C0.01 13.67 -0.98 13.34 -2 13 C-1.85966889 11.02043559 -1.7125877 9.04134859 -1.5625 7.0625 C-1.48128906 5.96035156 -1.40007812 4.85820312 -1.31640625 3.72265625 C-1 1 -1 1 0 0 Z " fill="#85827B" transform="translate(195,124)"/>
<path d="M0 0 C2.5478963 2.44598045 4.88962178 5.01020468 7.1875 7.6875 C11.23563866 12.35374156 15.59715741 16.67122392 20 21 C21.02201828 22.01964701 22.04311158 23.04022379 23.0625 24.0625 C23.701875 24.701875 24.34125 25.34125 25 26 C14.91275304 22.5481584 6.90309754 12.53864906 1 4 C0.25390625 1.67578125 0.25390625 1.67578125 0 0 Z " fill="#393835" transform="translate(28,163)"/>
<path d="M0 0 C0 2.66666667 0 5.33333333 0 8 C0.66 8.33 1.32 8.66 2 9 C0.80100302 12.0831351 -0.47700477 15.06279492 -2 18 C-2.99 17.67 -3.98 17.34 -5 17 C-4.74481529 14.72735496 -4.47030939 12.45687295 -4.1875 10.1875 C-4.03667969 8.92292969 -3.88585937 7.65835938 -3.73046875 6.35546875 C-3.01844789 3.08474189 -2.63391327 1.941158 0 0 Z " fill="#75766E" transform="translate(187,154)"/>
<path d="M0 0 C0.33 0 0.66 0 1 0 C1 1.98 1 3.96 1 6 C0.34 6 -0.32 6 -1 6 C-0.835 6.86625 -0.67 7.7325 -0.5 8.625 C-0.02310826 11.84401928 0.2212871 14.75445586 0 18 C-0.66 18.66 -1.32 19.32 -2 20 C-5.55555556 9.11111111 -5.55555556 9.11111111 -3 4 C-2.34 4 -1.68 4 -1 4 C-0.67 2.68 -0.34 1.36 0 0 Z " fill="#F1F0EE" transform="translate(12,101)"/>
<path d="M0 0 C0.99 0.33 1.98 0.66 3 1 C1.52949652 5.41151045 -2.04622223 7.85139916 -6 10 C-6.99 10 -7.98 10 -9 10 C-8.67 8.35 -8.34 6.7 -8 5 C-6.02 5.495 -6.02 5.495 -4 6 C-3.67 4.35 -3.34 2.7 -3 1 C-2.01 1 -1.02 1 0 1 C0 0.67 0 0.34 0 0 Z " fill="#EFEFE7" transform="translate(162,176)"/>
<path d="M0 0 C4.62609198 -0.3227506 7.28026121 0.15549386 11 3 C11 3.66 11 4.32 11 5 C11.99 5.33 12.98 5.66 14 6 C13.01 6.66 12.02 7.32 11 8 C5.75338638 6.37831943 3.14009242 4.64733678 0 0 Z " fill="#363531" transform="translate(150,30)"/>
<path d="M0 0 C-0.66644531 0.32871094 -1.33289063 0.65742187 -2.01953125 0.99609375 C-9.46882471 4.84055429 -15.68676838 9.50492413 -22 15 C-22.66 14.67 -23.32 14.34 -24 14 C-7.26640927 -2.42213642 -7.26640927 -2.42213642 0 0 Z " fill="#262522" transform="translate(67,33)"/>
<path d="M0 0 C0.103125 0.598125 0.20625 1.19625 0.3125 1.8125 C1.09385053 4.29861534 2.14895416 5.22943442 4 7 C4 7.66 4 8.32 4 9 C0.7 8.01 -2.6 7.02 -6 6 C-5.67 4.68 -5.34 3.36 -5 2 C-2.4375 0.75 -2.4375 0.75 0 0 Z " fill="#4F4E4A" transform="translate(140,25)"/>
<path d="M0 0 C0.99 0.33 1.98 0.66 3 1 C2.34 1 1.68 1 1 1 C1.185625 1.5775 1.37125 2.155 1.5625 2.75 C2.0678782 5.34908787 2.09159541 6.58289588 1 9 C-1.5625 10.75 -1.5625 10.75 -4 12 C-4.33 9.36 -4.66 6.72 -5 4 C-4.01 4 -3.02 4 -2 4 C-1.34 2.68 -0.68 1.36 0 0 Z " fill="#454440" transform="translate(183,173)"/>
<path d="M0 0 C4.455 0.99 4.455 0.99 9 2 C7.68 3.65 6.36 5.3 5 7 C5.66 7.33 6.32 7.66 7 8 C5.68 8 4.36 8 3 8 C2.896875 7.360625 2.79375 6.72125 2.6875 6.0625 C2.460625 5.381875 2.23375 4.70125 2 4 C1.01 3.67 0.02 3.34 -1 3 C-0.67 2.01 -0.34 1.02 0 0 Z " fill="#2F2E2A" transform="translate(141,26)"/>
<path d="M0 0 C0.66 0.66 1.32 1.32 2 2 C1.01 2.495 1.01 2.495 0 3 C-0.33 3.99 -0.66 4.98 -1 6 C0.97536745 5.65213292 0.97536745 5.65213292 3 5 C3.33 4.34 3.66 3.68 4 3 C4.99 3 5.98 3 7 3 C7 3.66 7 4.32 7 5 C1.95859836 7.81532819 -2.22621075 9.5188509 -8 10 C-6.36587557 8.29159719 -5.13093906 7.06546953 -3 6 C-2.29788106 4.34795544 -1.63028587 2.68076231 -1 1 C-0.67 0.67 -0.34 0.34 0 0 Z " fill="#484840" transform="translate(164,181)"/>
<path d="M0 0 C1.109375 1.55078125 1.109375 1.55078125 2 4 C1.390625 7.41796875 1.390625 7.41796875 0.25 11.1875 C-0.29914062 13.06501953 -0.29914062 13.06501953 -0.859375 14.98046875 C-2 18 -2 18 -4 19 C-3.71512349 16.95737483 -3.42177949 14.91592973 -3.125 12.875 C-2.96257813 11.73804687 -2.80015625 10.60109375 -2.6328125 9.4296875 C-2.02568583 6.13921085 -1.13654367 3.14220897 0 0 Z " fill="#4A4947" transform="translate(18,80)"/>
<path d="M0 0 C5.99172349 1.8831131 9.46569804 5.9775709 13 11 C10.21788056 10.62403791 8.4120716 10.32681541 6.1875 8.5625 C5 7 5 7 5 5 C4.34 5 3.68 5 3 5 C3 4.34 3 3.68 3 3 C2.01 2.67 1.02 2.34 0 2 C0 1.34 0 0.68 0 0 Z " fill="#B9B8B3" transform="translate(155,43)"/>
<path d="M0 0 C0 3 0 3 -1 5 C-0.34 5.33 0.32 5.66 1 6 C-0.41328129 6.81837442 -1.83078346 7.62946219 -3.25 8.4375 C-4.43335938 9.11619141 -4.43335938 9.11619141 -5.640625 9.80859375 C-7.78833468 10.89311602 -9.65205061 11.53148716 -12 12 C-8 8 -4 4 0 0 Z " fill="#63625B" transform="translate(171,172)"/>
<path d="M0 0 C0.71484375 1.703125 0.71484375 1.703125 1 4 C-0.43359375 6.359375 -0.43359375 6.359375 -2.4375 8.75 C-3.42556641 9.94882813 -3.42556641 9.94882813 -4.43359375 11.171875 C-4.95050781 11.77515625 -5.46742188 12.3784375 -6 13 C-6.66 12.01 -7.32 11.02 -8 10 C-7.34 9.01 -6.68 8.02 -6 7 C-5.01 7 -4.02 7 -3 7 C-2.67 5.35 -2.34 3.7 -2 2 C-1.34 2 -0.68 2 0 2 C0 1.34 0 0.68 0 0 Z " fill="#34332F" transform="translate(201,156)"/>
<path d="M0 0 C1.32 0.33 2.64 0.66 4 1 C4 1.66 4 2.32 4 3 C5.98 3 7.96 3 10 3 C10.625 4.875 10.625 4.875 11 7 C10.34 7.66 9.68 8.32 9 9 C8.67 7.68 8.34 6.36 8 5 C6.02 5.33 4.04 5.66 2 6 C0 1.125 0 1.125 0 0 Z " fill="#F3F2EE" transform="translate(136,34)"/>
<path d="M0 0 C0.99 0.33 1.98 0.66 3 1 C3 4.3 3 7.6 3 11 C2.34 10.34 1.68 9.68 1 9 C0.01 9.495 0.01 9.495 -1 10 C-2.46726798 6.18510326 -1.43336419 3.70988378 0 0 Z " fill="#F5F4F0" transform="translate(187,121)"/>
<path d="M0 0 C5.28 0 10.56 0 16 0 C15.01 1.485 15.01 1.485 14 3 C8.86940098 3.5029999 4.811686 2.57116277 0 1 C0 0.67 0 0.34 0 0 Z " fill="#22211D" transform="translate(113,24)"/>
<path d="M0 0 C0.66 0.33 1.32 0.66 2 1 C1.01 2.485 1.01 2.485 0 4 C-0.39013716 5.9896995 -0.73202649 7.99019869 -1 10 C-2.32 10.33 -3.64 10.66 -5 11 C-4.74445946 9.53890937 -4.46999628 8.08111904 -4.1875 6.625 C-4.03667969 5.81289062 -3.88585937 5.00078125 -3.73046875 4.1640625 C-3 2 -3 2 0 0 Z " fill="#4F4E48" transform="translate(199,153)"/>
<path d="M0 0 C1.98 0.66 3.96 1.32 6 2 C6.33 3.65 6.66 5.3 7 7 C6.01 7 5.02 7 4 7 C3.67 6.01 3.34 5.02 3 4 C2.34 4 1.68 4 1 4 C0.67 2.68 0.34 1.36 0 0 Z M2 6 C2.33 6.66 2.66 7.32 3 8 C2.34 7.67 1.68 7.34 1 7 C1.33 6.67 1.66 6.34 2 6 Z " fill="#EEEDE9" transform="translate(148,40)"/>
<path d="M0 0 C2.475 0.99 2.475 0.99 5 2 C5.33 4.31 5.66 6.62 6 9 C4.02 8.34 2.04 7.68 0 7 C0 4.69 0 2.38 0 0 Z " fill="#54534D" transform="translate(172,48)"/>
<path d="M0 0 C0.33 0.66 0.66 1.32 1 2 C1.99 1.67 2.98 1.34 4 1 C6.1875 1.9375 6.1875 1.9375 8 3 C6.88625 3.6496875 6.88625 3.6496875 5.75 4.3125 C3.38166074 5.76579909 1.19075935 7.29607606 -1 9 C-0.67 6.03 -0.34 3.06 0 0 Z " fill="#DBDAD8" transform="translate(50,33)"/>
<path d="M0 0 C3.34726719 1.11575573 3.62079748 1.51344622 5.25 4.4375 C6.11625 6.2009375 6.11625 6.2009375 7 8 C6.67 8.66 6.34 9.32 6 10 C3.36 7.69 0.72 5.38 -2 3 C-1.34 2.67 -0.68 2.34 0 2 C0 1.34 0 0.68 0 0 Z " fill="#706F6A" transform="translate(162,44)"/>
<path d="M0 0 C-2.80804268 2.96404505 -5.18315774 5.44499019 -9 7 C-8.814375 6.38125 -8.62875 5.7625 -8.4375 5.125 C-7.76313824 2.95839822 -7.76313824 2.95839822 -9 1 C-5.64919071 -1.10976881 -3.77897651 -1.0497157 0 0 Z " fill="#DCDBD7" transform="translate(49,42)"/>
<path d="M0 0 C0.99 0.33 1.98 0.66 3 1 C2.01 1 1.02 1 0 1 C0 0.67 0 0.34 0 0 Z M-4 3 C-2.68 3 -1.36 3 0 3 C-0.75 5.4375 -0.75 5.4375 -2 8 C-4.125 8.8125 -4.125 8.8125 -6 9 C-5.125 4.125 -5.125 4.125 -4 3 Z " fill="#313129" transform="translate(169,186)"/>
<path d="M0 0 C1.98 0.99 1.98 0.99 4 2 C4.83886169 4.67790463 4.81766414 7.1737941 5 10 C4.01 10 3.02 10 2 10 C1.34 6.7 0.68 3.4 0 0 Z " fill="#373830" transform="translate(203,82)"/>
<path d="M0 0 C0.66 0.33 1.32 0.66 2 1 C1.74438677 3.3431213 1.40729228 5.67843403 1 8 C0.01 8.495 0.01 8.495 -1 9 C-1.66 7.02 -2.32 5.04 -3 3 C-2.01 2.01 -1.02 1.02 0 0 Z " fill="#F4F4F1" transform="translate(206,69)"/>
<path d="M0 0 C3.70066609 0.90460727 5.56497978 1.43868358 7.9375 4.5 C8.288125 5.325 8.63875 6.15 9 7 C8.67 7.66 8.34 8.32 8 9 C3.48864333 6.80528594 1.93726652 4.58826282 0 0 Z " fill="#363631" transform="translate(191,61)"/>
<path d="M0 0 C2.04119788 1.61594832 4.04072937 3.2856382 6 5 C6 5.66 6 6.32 6 7 C4.68 6.67 3.36 6.34 2 6 C1.67 6.66 1.34 7.32 1 8 C0.34 7.67 -0.32 7.34 -1 7 C-1 6.34 -1 5.68 -1 5 C-0.34 5 0.32 5 1 5 C0.67 3.35 0.34 1.7 0 0 Z " fill="#DCDBD7" transform="translate(43,182)"/>
<path d="M0 0 C1.98 0.495 1.98 0.495 4 1 C4 1.99 4 2.98 4 4 C3.01 4.495 3.01 4.495 2 5 C0.86649466 7.01669827 0.86649466 7.01669827 0 9 C-1.125 2.25 -1.125 2.25 0 0 Z " fill="#DEDDDA" transform="translate(33,174)"/>
<path d="M0 0 C0.99 0.99 1.98 1.98 3 3 C1 5 1 5 -2 7 C-2.99 6.67 -3.98 6.34 -5 6 C-4.34 4.68 -3.68 3.36 -3 2 C-2.01 2 -1.02 2 0 2 C0 1.34 0 0.68 0 0 Z " fill="#45453F" transform="translate(192,166)"/>
<path d="M0 0 C1 3 1 3 0.375 5.5625 C-1.33177722 8.58815053 -2.73058318 9.05358987 -6 10 C-4.125 5.25 -4.125 5.25 -3 3 C-2.34 3 -1.68 3 -1 3 C-0.67 2.01 -0.34 1.02 0 0 Z " fill="#64645D" transform="translate(195,155)"/>
<path d="M0 0 C1.32 0.33 2.64 0.66 4 1 C4 2.98 4 4.96 4 7 C2.02 7.99 2.02 7.99 0 9 C0 6.03 0 3.06 0 0 Z " fill="#383933" transform="translate(198,71)"/>
<path d="M0 0 C1.4606285 2.64738916 2 3.89448334 2 7 C1.01 7 0.02 7 -1 7 C-1.99 5.02 -2.98 3.04 -4 1 C-2 0 -2 0 0 0 Z " fill="#6F6E69" transform="translate(182,65)"/>
<path d="M0 0 C2 1 2 1 3.0625 3.875 C3.371875 4.90625 3.68125 5.9375 4 7 C4.33 7.99 4.66 8.98 5 10 C1.00003714 8.66667905 0.16217663 6.5042173 -2 3 C-1.34 3 -0.68 3 0 3 C0 2.01 0 1.02 0 0 Z " fill="#787773" transform="translate(174,55)"/>
<path d="M0 0 C0.66 0 1.32 0 2 0 C2.1875 2.375 2.1875 2.375 2 5 C1.01 5.66 0.02 6.32 -1 7 C-1 6.34 -1 5.68 -1 5 C-1.99 4.67 -2.98 4.34 -4 4 C-3.01 3.67 -2.02 3.34 -1 3 C-0.67 2.01 -0.34 1.02 0 0 Z " fill="#E1E0DC" transform="translate(188,176)"/>
<path d="M0 0 C0 1.65 0 3.3 0 5 C-1.65 5.33 -3.3 5.66 -5 6 C-4.6875 4.125 -4.6875 4.125 -4 2 C-1 0 -1 0 0 0 Z " fill="#595951" transform="translate(168,181)"/>
<path d="M0 0 C0.66 0.33 1.32 0.66 2 1 C1.43628586 4.26954202 0.50037734 5.82575883 -2 8 C-2.66 6.35 -3.32 4.7 -4 3 C-3.01 2.67 -2.02 2.34 -1 2 C-0.67 1.34 -0.34 0.68 0 0 Z " fill="#DEDDDB" transform="translate(28,57)"/>
<path d="M0 0 C2 1 2 1 4 4 C1.36 4.99 -1.28 5.98 -4 7 C-3.39816251 4.97954558 -2.72693904 2.97888961 -2 1 C-1.34 0.67 -0.68 0.34 0 0 Z " fill="#DFDEDA" transform="translate(69,25)"/>
<path d="M0 0 C0.99 0.33 1.98 0.66 3 1 C2.67 2.65 2.34 4.3 2 6 C0.68 5.67 -0.64 5.34 -2 5 C-1.125 1.125 -1.125 1.125 0 0 Z " fill="#EFEEEC" transform="translate(20,133)"/>
<path d="M0 0 C0 0.99 0 1.98 0 3 C-2.31 3.33 -4.62 3.66 -7 4 C-7.33 3.01 -7.66 2.02 -8 1 C-5.29120665 -0.35439668 -2.99066732 -0.06501451 0 0 Z " fill="#DFDEDA" transform="translate(86,27)"/>
<path d="M0 0 C1.2065625 0.0309375 1.2065625 0.0309375 2.4375 0.0625 C0.9375 2.0625 0.9375 2.0625 -1.5625 4.0625 C-4.32121627 4.42050135 -6.76347524 4.24910165 -9.5625 4.0625 C-9.5625 3.7325 -9.5625 3.4025 -9.5625 3.0625 C-8.1084375 2.5984375 -8.1084375 2.5984375 -6.625 2.125 C-0.53780864 0.01311728 -0.53780864 0.01311728 0 0 Z " fill="#4E4D49" transform="translate(131.5625,23.9375)"/>
<path d="M0 0 C3.94139078 1.66751148 6.7892812 4.22710649 10 7 C9.01 7.495 9.01 7.495 8 8 C6.66372225 6.85760183 5.33104612 5.71098945 4 4.5625 C3.2575 3.92441406 2.515 3.28632813 1.75 2.62890625 C1.1725 2.09136719 0.595 1.55382812 0 1 C0 0.67 0 0.34 0 0 Z " fill="#21201D" transform="translate(43,181)"/>
<path d="M0 0 C0.33 0.66 0.66 1.32 1 2 C1.66 2.33 2.32 2.66 3 3 C1.35 4.32 -0.3 5.64 -2 7 C-2.66 6.67 -3.32 6.34 -4 6 C-3.0022242 3.00667261 -2.2477975 2.05233685 0 0 Z " fill="#F4F3EF" transform="translate(201,162)"/>
<path d="M0 0 C0.66 0 1.32 0 2 0 C2.33 0.99 2.66 1.98 3 3 C1.02 3.99 1.02 3.99 -1 5 C-1 5.99 -1 6.98 -1 8 C-1.99 7.67 -2.98 7.34 -4 7 C-1.125 1.125 -1.125 1.125 0 0 Z " fill="#4C4C43" transform="translate(193,68)"/>
<path d="M0 0 C0.99 0.33 1.98 0.66 3 1 C-0.465 3.97 -0.465 3.97 -4 7 C-4 4 -4 4 -2 1.8125 C-1.34 1.214375 -0.68 0.61625 0 0 Z " fill="#484745" transform="translate(41,48)"/>
<path d="M0 0 C1.9375 0.375 1.9375 0.375 4 1 C4.33 1.66 4.66 2.32 5 3 C3.02 3.66 1.04 4.32 -1 5 C-0.67 3.35 -0.34 1.7 0 0 Z " fill="#F3F3EB" transform="translate(147,202)"/>
<path d="M0 0 C0.33 0 0.66 0 1 0 C1.08121924 1.60332791 1.13929134 3.20784026 1.1875 4.8125 C1.23970703 6.15248047 1.23970703 6.15248047 1.29296875 7.51953125 C0.95081002 10.41647515 0.24606427 11.22555028 -2 13 C-1.855625 12.34 -1.71125 11.68 -1.5625 11 C-0.87700084 7.34400449 -0.43824485 3.69377805 0 0 Z " fill="#696A62" transform="translate(202,126)"/>
<path d="M0 0 C0.99 0 1.98 0 3 0 C2.50168276 3.68754757 1.89932357 5.60490662 -1 8 C-0.67 5.36 -0.34 2.72 0 0 Z " fill="#6B6B63" transform="translate(195,116)"/>
<path d="M0 0 C1.65 1.65 3.3 3.3 5 5 C4.34 5.66 3.68 6.32 3 7 C1.68 5.35 0.36 3.7 -1 2 C-0.67 1.34 -0.34 0.68 0 0 Z " fill="#55544D" transform="translate(188,53)"/>
<path d="M0 0 C0.99 0.33 1.98 0.66 3 1 C2.67 2.32 2.34 3.64 2 5 C1.01 5 0.02 5 -1 5 C-1.66 4.34 -2.32 3.68 -3 3 C-2.01 2.01 -1.02 1.02 0 0 Z " fill="#DCDBD9" transform="translate(53,40)"/>
<path d="M0 0 C-0.33 1.32 -0.66 2.64 -1 4 C-2.65 4.33 -4.3 4.66 -6 5 C-6 4.01 -6 3.02 -6 2 C-2.25 0 -2.25 0 0 0 Z " fill="#46463E" transform="translate(142,195)"/>
<path d="M0 0 C0.99 0.495 0.99 0.495 2 1 C1.01 1.495 1.01 1.495 0 2 C0 1.34 0 0.68 0 0 Z M-1 2 C0.32 2.66 1.64 3.32 3 4 C3 4.66 3 5.32 3 6 C0.69 5.34 -1.62 4.68 -4 4 C-3.01 3.34 -2.02 2.68 -1 2 Z " fill="#D9D9D1" transform="translate(75,194)"/>
<path d="M0 0 C0.99 0.33 1.98 0.66 3 1 C2.34 2.65 1.68 4.3 1 6 C0.34 5.67 -0.32 5.34 -1 5 C-1 1 -1 1 0 0 Z " fill="#F5F5EE" transform="translate(172,190)"/>
<path d="M0 0 C0.66 0 1.32 0 2 0 C2.33 1.65 2.66 3.3 3 5 C1.35 5.66 -0.3 6.32 -2 7 C-1.34 4.69 -0.68 2.38 0 0 Z " fill="#F1F1E9" transform="translate(147,185)"/>
<path d="M0 0 C1.32 0 2.64 0 4 0 C3.67 1.65 3.34 3.3 3 5 C2.01 4.67 1.02 4.34 0 4 C0 2.68 0 1.36 0 0 Z " fill="#F2F1ED" transform="translate(168,168)"/>
<path d="M0 0 C0.66 0.33 1.32 0.66 2 1 C1.67 2.32 1.34 3.64 1 5 C0.01 5 -0.98 5 -2 5 C-2 2 -2 2 0 0 Z " fill="#F3F2EE" transform="translate(175,160)"/>
<path d="M0 0 C1.0625 1.8125 1.0625 1.8125 2 4 C1.67 4.99 1.34 5.98 1 7 C1 6.34 1 5.68 1 5 C0.34 5 -0.32 5 -1 5 C-1.33 6.32 -1.66 7.64 -2 9 C-2.25 3.375 -2.25 3.375 0 0 Z " fill="#909089" transform="translate(188,154)"/>
<path d="M0 0 C3.16115776 1.36983503 3.9927092 1.9890638 6 5 C4.35 4.67 2.7 4.34 1 4 C0.67 2.68 0.34 1.36 0 0 Z " fill="#CCCBC4" transform="translate(162,49)"/>
<path d="M0 0 C0.99 0.33 1.98 0.66 3 1 C3.33 2.65 3.66 4.3 4 6 C1.525 5.01 1.525 5.01 -1 4 C-0.67 2.68 -0.34 1.36 0 0 Z " fill="#373632" transform="translate(158,40)"/>
</svg>
